<svg xmlns="http://www.w3.org/2000/svg" version="1.1" xmlns:xlink="http://www.w3.org/1999/xlink" viewBox="0 0 200 200"><rect width="200" height="200" fill="url('#gradient')"></rect><defs><linearGradient id="gradient" gradientTransform="rotate(0 0.5 0.5)"><stop offset="0%" stop-color="#1b3855"></stop><stop offset="100%" stop-color="#1b3855"></stop></linearGradient></defs><g><g fill="#ffffff" transform="matrix(4.141320106829454,0,0,4.141320106829454,43.28333172246456,130.42162833808715)" stroke="#0e5278" stroke-width="0.15"><path d="M4.39-10.57L4.39 0L1.09 0L1.09-10.57L4.39-10.57ZM0.90-13.29L0.90-13.29Q0.90-13.99 1.41-14.44Q1.91-14.89 2.72-14.89Q3.54-14.89 4.04-14.44Q4.55-13.99 4.55-13.29Q4.55-12.59 4.04-12.14Q3.54-11.69 2.72-11.69Q1.91-11.69 1.41-12.14Q0.90-12.59 0.90-13.29ZM15.66 0L12.37 0Q12.20-0.32 12.06-0.95L12.06-0.95Q11.15 0.20 9.52 0.20L9.52 0.20Q8.03 0.20 6.98-0.71Q5.94-1.61 5.94-2.98L5.94-2.98Q5.94-4.70 7.21-5.58Q8.48-6.46 10.90-6.46L10.90-6.46L11.91-6.46L11.91-7.01Q11.91-8.47 10.65-8.47L10.65-8.47Q9.48-8.47 9.48-7.31L9.48-7.31L6.19-7.31Q6.19-8.85 7.50-9.80Q8.80-10.76 10.82-10.76Q12.84-10.76 14.01-9.78Q15.19-8.79 15.21-7.07L15.21-7.07L15.21-2.39Q15.23-0.94 15.66-0.17L15.66-0.17L15.66 0ZM10.31-2.15L10.31-2.15Q10.93-2.15 11.33-2.41Q11.74-2.68 11.91-3.01L11.91-3.01L11.91-4.70L10.96-4.70Q9.24-4.70 9.24-3.15L9.24-3.15Q9.24-2.71 9.54-2.43Q9.84-2.15 10.31-2.15ZM16.97-10.57L20.06-10.57L20.17-9.33Q21.26-10.76 23.18-10.76L23.18-10.76Q24.83-10.76 25.65-9.78Q26.46-8.79 26.49-6.81L26.49-6.81L26.49 0L23.19 0L23.19-6.67Q23.19-7.47 22.87-7.85Q22.55-8.22 21.70-8.22L21.70-8.22Q20.73-8.22 20.26-7.46L20.26-7.46L20.26 0L16.97 0L16.97-10.57Z"></path></g></g></svg>